<svg aria-hidden="true" style="position:absolute;width:0;height:0;overflow:hidden" xmlns="http://www.w3.org/2000/svg"><defs><symbol id="icon-arrow-left" viewBox="0 0 42 32"><path fill="#fff" style="fill:var(--color1, #fff)" d="M.586 14.586C.224 14.948 0 15.448 0 16s.224 1.052.586 1.414l12.728 12.728a2 2 0 0 0 2.827-2.829l.001.001L4.828 16 16.142 4.686a2 2 0 0 0-2.829-2.825l.001-.001L.586 14.586zM42 14H2v4h40v-4z"/></symbol><symbol id="icon-arrow-rigth" viewBox="0 0 42 32"><path fill="#fff" style="fill:var(--color1, #fff)" d="M41.414 17.414c.362-.362.586-.862.586-1.414s-.224-1.052-.586-1.414L28.686 1.858a2 2 0 1 0-2.829 2.827l.001.001L37.172 16 25.858 27.314a2 2 0 0 0 2.829 2.827l-.001.001 12.728-12.728zM0 18h40v-4H0v4z"/></symbol><symbol id="icon-designing" viewBox="0 0 28 32"><path fill="#fff" style="fill:var(--color1, #fff)" d="m20.483 5.558.001-.075a3.822 3.822 0 0 0-3.608-3.816H16.863c-.689 0-1.329.211-1.858.571l.011-.007a4.74 4.74 0 0 0-2.248-.564h-.001a5.31 5.31 0 0 0-4.899 3.744l-.01.038A3.936 3.936 0 0 0 5.06 9.354v-.007a3.835 3.835 0 0 0 3.606 4.008h2.093l-2.448 4.448a.251.251 0 0 0-.034.123.129.129 0 0 0-.007.04v.009l-.282 2.819v.027l-.234 2.331a.334.334 0 0 0 .177.329l.002.001a.36.36 0 0 0 .379-.028l-.001.001 1.856-1.451 2.227-1.746a.272.272 0 0 0 .13-.129l.001-.002 3.733-6.772h3.059a3.837 3.837 0 0 0 3.615-4.016v.009l.001-.103a3.993 3.993 0 0 0-2.43-3.675l-.026-.01zm-8.931 7.796h1.568l-2.832 5.142-1.203-.66 2.468-4.482zM8.52 22.415l.117-1.199c.325.082.605.242.83.459l-.001-.001-.946.74zm1.492-1.168-.007.006a2.501 2.501 0 0 0-1.283-.715l-.016-.003v-.01l.199-2.007 1.333.742c.007 0 .007.007.014.007s.007.007.014.007l1.334.736-1.588 1.237zm2.083-1.754h-.007l-1.196-.667 3.011-5.472h1.568l-3.376 6.139zm7.226-6.826H8.678a3.15 3.15 0 0 1-2.928-3.33v.009a3.224 3.224 0 0 1 2.37-3.253l.023-.005h.014a2.721 2.721 0 0 1 2.509 2.874v-.007a.344.344 0 1 0 .688 0c.002-.038.002-.083.002-.127A3.459 3.459 0 0 0 8.62 5.446l-.023-.004c.62-1.764 2.242-3.018 4.165-3.086h.008c.722 0 1.432.192 2.056.557.007.007.014.007.021.014a2.954 2.954 0 0 1 1.228 1.978l.002.016c.007.034.007.062.014.096.021.17.163.3.336.303h.042a.352.352 0 0 0 .303-.386v.002-.004a.048.048 0 0 0-.007-.024 3.589 3.589 0 0 0-1.139-2.232l-.003-.002c.36-.198.788-.315 1.244-.316a3.118 3.118 0 0 1 2.915 3.11v.027-.001a2.735 2.735 0 0 0-1.132.385l.012-.007a2.79 2.79 0 0 0-.592.434l.001-.001a3.58 3.58 0 0 0-.706.929l-.009.019a.336.336 0 0 0 .149.46l.002.001c.043.025.095.04.151.041h.004a.343.343 0 0 0 .304-.184l.001-.002a2.66 2.66 0 0 1 .602-.781l.003-.002c.163-.157.351-.288.558-.387l.013-.005c.27-.139.588-.225.926-.233h.003c.007-.007.007-.007.013 0a3.262 3.262 0 0 1 2.168 3.068l-.002.128v-.006a3.148 3.148 0 0 1-2.919 3.32l-.01.001zm-.378-3.74a.344.344 0 0 0-.062-.338v.001a.3.3 0 0 0-.149-.103l-.002-.001a.357.357 0 0 0-.44.218l-.001.002a3.057 3.057 0 0 0-.151 1.227l-.001-.011a.008.008 0 0 1-.002.005.008.008 0 0 1-.005.002c-.007.014-.007.021-.013.028l.02-.014c.022.426.139.821.33 1.169l-.007-.014c.058.11.171.184.302.185.055 0 .11-.014.158-.041a.337.337 0 0 0 .144-.462l.001.002a2.38 2.38 0 0 1-.118-1.873l-.005.017zm-8.924 1.416a2.328 2.328 0 0 1-1.86-.191l.012.006a.342.342 0 0 0-.518.295c0 .136.079.253.193.309l.002.001c.427.237.936.377 1.478.378.308 0 .614-.048.907-.144a.339.339 0 0 0 .219-.435l.001.002a.344.344 0 0 0-.436-.219l.002-.001zm5.906-.66a3.034 3.034 0 0 0-.531-.426l-.012-.007a3.47 3.47 0 0 0-.622-.322l-.024-.008a2.998 2.998 0 0 0-.628-.176l-.018-.003a1.653 1.653 0 0 0-.371-.041.335.335 0 0 0-.332.008l.001-.001h-.007a.082.082 0 0 0-.056 0h.001a2.87 2.87 0 0 0-1.116.317l.016-.008a.344.344 0 0 0 .312.611l-.002.001a1.7 1.7 0 0 1 .357-.144h.007a2.214 2.214 0 0 1 .839-.096h-.007c.26.017.515.075.757.172.198.077.388.176.563.296.193.131.371.283.529.454.194.209.361.446.494.704l.008.018a.345.345 0 0 0 .309.193.358.358 0 0 0 .262-.124.336.336 0 0 0 .039-.379l.001.002a3.664 3.664 0 0 0-.768-1.036l-.002-.002zm-2.2-5.074a.344.344 0 0 0-.319-.605l.002-.001a2.378 2.378 0 0 1-1.873.118l.017.005a.342.342 0 0 0-.439.211l-.001.002a.357.357 0 0 0 .218.439l.002.001c.304.104.653.164 1.017.165h.017a2.9 2.9 0 0 0 1.373-.344l-.015.008z"/></symbol><symbol id="icon-facebook" viewBox="0 0 15 32"><path fill="#ae7b3c" style="fill:var(--color2, #ae7b3c)" d="M3.713 30.655V16.611H0v-5.056h3.713V7.236c0-3.393 2.192-6.509 7.247-6.509 2.047 0 3.559.196 3.559.196l-.119 4.72s-1.542-.015-3.226-.015c-1.823 0-2.115.839-2.115 2.233v3.692h5.487l-.239 5.056H9.059v14.044H3.714z"/></symbol><symbol id="icon-file" viewBox="0 0 32 32"><path fill="#fff" style="fill:var(--color1, #fff)" d="M28.5 8.5c.167.167.334.382.501.644h-8.432V.716c.263.167.476.332.644.5l7.285 7.285zM20 11.431h9.714v18.887c0 .464-.191.884-.499 1.184-.301.308-.72.5-1.184.5H28h.002-24.03c-.464 0-.884-.191-1.184-.499a1.65 1.65 0 0 1-.5-1.184v-.031.002V1.686c0-.464.191-.884.499-1.184.301-.308.72-.5 1.184-.5h.031H4h14.286v9.744c0 .464.191.884.499 1.184.301.31.721.502 1.186.502h.03H20zm2.857 13.141v-1.141a.56.56 0 0 0-.16-.412.553.553 0 0 0-.391-.16h-.021.001H9.714a.555.555 0 0 0-.409.16.556.556 0 0 0-.162.393v.021-.001 1.141a.56.56 0 0 0 .16.412c.107.107.245.16.411.16h12.572a.552.552 0 0 0 .571-.572zm0-4.57v-1.143a.552.552 0 0 0-.552-.571h-.02.001H9.714a.555.555 0 0 0-.409.16.556.556 0 0 0-.162.393v.019-.001 1.143a.56.56 0 0 0 .16.411c.107.107.245.16.411.16h12.572a.552.552 0 0 0 .571-.571zm0-4.571v-1.143a.556.556 0 0 0-.16-.411.553.553 0 0 0-.391-.16h-.021.001H9.714a.555.555 0 0 0-.409.16.556.556 0 0 0-.162.393v.017-.001 1.145c0 .165.053.302.16.409s.245.16.411.16h12.572a.552.552 0 0 0 .571-.571z"/></symbol><symbol id="icon-furniture" viewBox="0 0 31 32"><path fill="#fff" style="fill:var(--color1, #fff)" d="M24.242-40.631a.343.343 0 0 1-.343-.343v-1.666H8.102v1.666a.344.344 0 1 1-.688 0v-5.973c0-1.011.822-1.833 1.832-1.833h13.507c1.011 0 1.833.823 1.833 1.833v5.973c0 .19-.154.343-.343.343zM8.101-43.328h15.797v-3.619a1.147 1.147 0 0 0-1.146-1.146H9.245a1.146 1.146 0 0 0-1.144 1.146v3.619zm17.523-5.52H6.375a.344.344 0 1 1 0-.688h19.249a.344.344 0 1 1 0 .688zm-144.9 39.11a.345.345 0 0 1-.344-.344v-3.184h-3.931v3.184a.344.344 0 0 1-.688 0v-5.035h-.638a.344.344 0 0 1-.001-.688H-119.584l.49-4.409v-2.122a.344.344 0 0 1 .688-.001v2.162a.166.166 0 0 1-.002.024v-.001l-.523 4.71v5.359c0 .19-.154.344-.344.344zm-4.275-4.215h3.931v-1.163h-3.931v1.163zm-4.824 4.215h-.002l-.03-.001h.001-2.278a.344.344 0 0 1-.001-.688h1.966v-7.848H-134.313a.344.344 0 1 1 0-.688h.016-.001 11.847a.344.344 0 0 1 .001.688H-128.032v7.848h1.966a.344.344 0 0 1 .001.688h-2.28l-.028.001h-.002zm-4.481 0a.344.344 0 0 1-.344-.344v-3.184h-3.931v3.184a.344.344 0 0 1-.688.001v-5.36l-.523-4.71a.166.166 0 0 1-.002-.024v-.001l-.001-.023v-2.136a.344.344 0 0 1 .688-.001V-20.213l.49 4.409h5.292a.344.344 0 0 1 .001.688h-.639v5.035c0 .19-.154.343-.343.343zm-4.274-4.215h3.931v-1.163h-3.931v1.163zm45.873 2.627a.345.345 0 0 1-.344-.344v-.946H-99.5a.343.343 0 0 1-.343-.343v-6.585h-7.555v7.873a.344.344 0 0 1-.688 0v-7.874h-1.038a.345.345 0 0 1-.344-.344v-.86c0-.19.154-.343.344-.343h19.25c.19 0 .344.154.344.343v.86c0 .19-.154.343-.344.343h-1.038v7.874c0 .19-.154.343-.344.343zm-7.9-1.977h7.556v-2.776h-7.556v2.776zm0-3.464h7.556v-2.777h-7.556v2.777zm7.9-3.464h1.039v-.172h-18.563v.172h17.524zm-3.671 5.884h-.898a.344.344 0 1 1 0-.688h.898a.344.344 0 1 1 0 .688zm0-3.465h-.898a.344.344 0 1 1 0-.688h.898a.344.344 0 1 1 0 .688zm32.546 6.486a.345.345 0 0 1-.344-.344v-4.409h-15.798v4.409a.344.344 0 0 1-.688 0v-7.874h-1.038a.345.345 0 0 1-.344-.344v-.86c0-.19.154-.343.344-.343H-61c.19 0 .344.154.344.343v.86c0 .19-.154.343-.344.343h-1.038v7.874c0 .19-.154.343-.344.343zm-7.9-5.441h7.556v-2.777h-7.556v2.777zm-8.242 0h7.555v-2.777h-7.555v2.777zm16.142-3.464h1.039v-.172h-18.563v.172h17.524zm-3.671 2.419h-.898a.344.344 0 0 1-.001-.688h.899a.344.344 0 0 1 .001.688h-.001zm-8.244-.053h-.899a.344.344 0 0 1-.001-.688h.9a.344.344 0 0 1 .001.688h-.001zm36.51 11.625a.343.343 0 0 1-.343-.343v-1.038h-7.24v1.038a.344.344 0 1 1-.688 0v-6.49h-1.254a.343.343 0 0 1-.343-.343 1.186 1.186 0 0 1 1.191-1.171h.493l.003-7.524a4.211 4.211 0 0 1 4.218-4.065h.014a4.207 4.207 0 0 1 4.204 4.044v.008l.004 7.538h.493c.641 0 1.176.521 1.191 1.161v.01c0 .19-.154.343-.343.343h-1.255v6.49a.345.345 0 0 1-.345.344zm-7.584-2.069h7.24v-2.039h-7.24v2.039zm0-2.726h7.24v-2.038h-7.24v2.038zm7.584-2.726h1.098a.5.5 0 0 0-.347-.139h-9.429a.506.506 0 0 0-.347.139h9.025zm-7.497-.827h7.068l-.004-7.524a3.52 3.52 0 0 0-3.531-3.378h-.01a3.524 3.524 0 0 0-3.521 3.384v.007l-.003 7.511zm3.966 5.604h-.863a.344.344 0 1 1 0-.688h.863a.344.344 0 1 1 0 .688zm0-2.727h-.863a.344.344 0 1 1 0-.688h.863a.344.344 0 1 1 0 .688zm-2.381-6.035h-.002a.344.344 0 0 1-.241-.587l3.898-3.898a.343.343 0 1 1 .486.486l-3.898 3.898a.34.34 0 0 1-.242.101h-.001zm1.698-.24a.343.343 0 0 1-.242-.587l1.96-1.959a.344.344 0 0 1 .486.486l-1.96 1.958a.343.343 0 0 1-.243.101zm-1.457-1.458h-.002a.344.344 0 0 1-.241-.587l1.958-1.959a.343.343 0 1 1 .486.486l-1.958 1.959a.343.343 0 0 1-.243.101zM-17.603-6.24a.344.344 0 0 1-.314-.482l-.001.002.248-.573h-.546a.343.343 0 0 1-.343-.343v-7.348c0-.2.18-.358.374-.342h2.882v-4.04h-2.913a.344.344 0 0 1-.34-.4v.002l.969-6.123a.344.344 0 0 1 .339-.29h4.572c.169 0 .313.123.339.29l.971 6.123a.344.344 0 0 1-.34.398h-.767v1.635a.344.344 0 1 1-.688 0v-1.635h-1.456v4.04h7.051a.35.35 0 0 1 .374.342v7.347c0 .19-.154.344-.344.344h-.533l.249.573a.344.344 0 0 1-.63.276l-.001-.002-.367-.847h-8.105l-.366.846a.344.344 0 0 1-.316.207zm9.02-1.74h.705v-2.985h-9.994v2.985H-8.582zm-9.289-3.673h9.994v-2.986h-9.994v2.986zm5.056-8.401h.709l-.862-5.435h-3.984l-.86 5.436h4.997zm.522 10.926h-1.164a.344.344 0 1 1 0-.688h1.164a.344.344 0 1 1 0 .688zm0-3.676h-1.164a.344.344 0 1 1 0-.688h1.164a.344.344 0 1 1 0 .688zm37.379.724a.345.345 0 0 1-.316-.207l-.322-.742H7.564l-.32.741a.344.344 0 0 1-.63-.275l-.001.002.202-.468h-.441a.344.344 0 0 1-.344-.344v-6.62a.35.35 0 0 1 .365-.343h9.581c.007 0 .015-.002.022 0 .009-.002.015 0 .022.001h9.581a.35.35 0 0 1 .365.343v6.62c0 .19-.153.344-.344.344h-.427l.203.468a.343.343 0 0 1-.314.48zm-.404-1.636h.6v-2.623h-8.937v2.623H24.682zm-17.334 0h8.309v-2.623H6.719v2.623h.629zm8.997-3.31h8.937v-2.622h-8.937v2.622zm-9.625 0h8.937v-2.622H6.719v2.622zm14.618 2.343h-1.049a.344.344 0 1 1 0-.688h1.049a.344.344 0 1 1 0 .688zm-9.627 0h-1.049a.344.344 0 1 1 0-.688h1.049a.344.344 0 1 1 0 .688zm9.627-3.31h-1.049a.344.344 0 1 1 0-.688h1.049a.344.344 0 1 1 0 .688zm-9.627 0h-1.049a.344.344 0 1 1 0-.688h1.049a.344.344 0 1 1 0 .688zm-149.156 34.787a.343.343 0 0 1-.314-.482l-.001.002.202-.468H-138a.343.343 0 0 1-.343-.343v-6.62c0-.19.154-.344.344-.344h19.25c.19 0 .344.153.344.344v6.619c0 .19-.154.343-.343.343h-.427l.203.468a.344.344 0 0 1-.631.276l-.001-.002-.322-.741h-16.883l-.321.741a.345.345 0 0 1-.315.208zm17.752-1.636h.6V9.226h-8.937v5.932h8.337zm-17.334 0h8.309v-2.622h-8.937v2.622h.629zm-.628-3.31h8.937V9.226h-8.937v2.622zm4.993 2.343h-1.049a.344.344 0 1 1 0-.688h1.049a.344.344 0 1 1 0 .688zm5.359-1.131a.343.343 0 0 1-.343-.343V11.667a.344.344 0 1 1 .688 0v1.049c0 .19-.154.344-.344.344zm-5.359-2.18h-1.049a.344.344 0 1 1 0-.688h1.049a.344.344 0 1 1 0 .688zm41.837 7.327a.344.344 0 0 1-.344-.344v-.12h-16.646v.12a.344.344 0 1 1-.688 0v-.12h-.59a.344.344 0 0 1-.374-.343V7.47c0-.19.154-.344.344-.344h19.25c.19 0 .343.154.343.343l-.001.032V7.5v3.249a.3.3 0 0 1 .001.03v6.62c0 .19-.154.343-.343.343h-.607v.12c0 .19-.154.343-.344.343zm-8.329-1.151h8.937v-2.622h-8.937v2.622zm-9.626 0h8.937v-2.622h-8.937v2.622zm9.626-3.31h8.937v-2.935l-.001-.03V7.815h-8.935v5.932zm-9.626 0h8.939V7.814h-8.939v5.932zm14.619 2.343h-1.049a.344.344 0 1 1 0-.688h1.049a.344.344 0 1 1 0 .688zm-9.626 0h-1.049a.344.344 0 1 1 0-.688h1.049a.344.344 0 1 1 0 .688zm12.895-4.442a.343.343 0 0 1-.343-.343v-1.048a.344.344 0 1 1 .688 0v1.048c0 .19-.154.344-.344.344zm-17.22 0a.343.343 0 0 1-.343-.343v-1.048a.344.344 0 1 1 .688 0v1.048c0 .19-.154.343-.343.343zm46.162 8.332a.343.343 0 0 1-.343-.343v-.123H-78.94v.122a.344.344 0 1 1-.688 0v-.122h-.59a.345.345 0 0 1-.374-.343v-3.311c0-.19.154-.343.344-.343h1.405v-.882h-1.405a.344.344 0 1 1 0-.688h8.229l.232-.752h-5.007a.343.343 0 0 1-.343-.343V5.698c0-.19.154-.344.344-.344h12.343c.19 0 .343.154.343.343v7.154c0 .19-.154.343-.343.343h-5.008l.232.752h8.23a.344.344 0 1 1 0 .688h-1.405v.882h1.405c.19 0 .343.154.343.343v3.31a.344.344 0 0 1-.343.343h-.607v.122c0 .19-.154.343-.344.343zm-8.331-1.153h8.938v-2.622h-8.938v2.622zm-9.624 0h8.937v-2.622h-8.937v2.622zm1.748-3.31h15.066v-.882H-78.158v.882zm6.857-1.569h1.351l-.232-.752h-.888l-.232.752zm1.382-1.439h5.122V6.042h-11.655v6.466h6.533zm4.632 5.352h-1.049a.344.344 0 1 1 0-.688h1.049a.344.344 0 1 1 0 .688zm-9.626 0h-1.049a.344.344 0 1 1 0-.688h1.049a.344.344 0 1 1 0 .688zm36.372-.611h-.001a.343.343 0 0 1-.343-.343v-.703h-5.731v.702a.344.344 0 1 1-.688 0v-.702h-5.727v.694a.344.344 0 1 1-.688 0v-8.47c0-.19.154-.344.344-.344h19.249c.19 0 .344.154.344.344v8.468a.344.344 0 1 1-.688 0v-.693h-5.729v.703c0 .19-.154.343-.343.343zm.343-1.733h5.729v-4.658h-5.729v4.658zm-6.419 0h5.731V9.827h-5.731v5.689zm-6.414 0h5.727v-4.658h-5.727v4.658zm12.833-5.346h5.729V8.772h-5.729v1.398zm-12.833 0h5.727V8.772h-5.727v1.398zm6.414-1.031h5.731v-.367h-5.731v.367zm6.845 4.73h-.001a.343.343 0 0 1-.343-.343v-.677a.344.344 0 1 1 .688 0v.677c0 .19-.154.343-.343.343zm-7.957 0a.343.343 0 0 1-.343-.343v-.677a.344.344 0 1 1 .688 0v.677c0 .19-.153.344-.344.344zm10.746-4.131h-.699a.344.344 0 1 1 0-.688h.699a.344.344 0 1 1 0 .688zm-12.835 0h-.698a.344.344 0 1 1 0-.688h.698a.344.344 0 1 1 0 .688zm39.607 12.897h-9.329a.343.343 0 0 1-.343-.343V3.043c0-.19.153-.344.343-.344h9.331c.19 0 .343.154.343.343 0 .011 0 .022-.002.032v-.001V9.43a.283.283 0 0 1 0 .062v-.001 6.355l.002.031-.002.032v-.001 6.384c0 .19-.154.343-.343.343zm-8.985-.687h8.642V16.22h-8.642v5.728zm0-6.417h8.642V9.804h-8.642v5.727zm0-6.418h8.642V3.385h-8.642v5.728zm.636 10.824a.343.343 0 0 1-.343-.343v-1.017a.344.344 0 1 1 .688 0v1.017c0 .19-.153.343-.344.343zm0-6.418a.343.343 0 0 1-.343-.343V12.16a.344.344 0 1 1 .688 0v1.015c0 .19-.153.344-.344.344zm0-6.418a.343.343 0 0 1-.343-.343V5.743a.344.344 0 1 1 .688 0v1.015c0 .19-.153.344-.344.344zm41.89 15.534H6.671a.343.343 0 0 1-.343-.343V3.043c0-.19.153-.344.343-.344H25.33c.19 0 .344.153.344.344v19.249c0 .19-.154.343-.343.343zm-8.986-.687h8.642V3.386h-8.642v18.562zm-9.33 0h8.641v-5.729H7.013v5.729zm0-6.417h8.641V3.386H7.013v12.145zm7.899 4.406a.343.343 0 0 1-.343-.343v-1.017a.344.344 0 1 1 .688 0v1.017c0 .19-.153.343-.343.343zm2.173-6.418h-.001a.343.343 0 0 1-.343-.343V12.16a.344.344 0 1 1 .688 0v1.015c0 .19-.154.344-.344.344zm-2.173 0a.343.343 0 0 1-.343-.343V12.16a.344.344 0 1 1 .688 0v1.015c0 .19-.153.344-.343.344zM-119.045 51.51h-18.66a.343.343 0 0 1-.343-.343V31.918c0-.19.154-.344.344-.344h18.66c.19 0 .343.154.343.343v19.25c0 .19-.154.343-.343.343zm-8.985-.687h8.642V32.261h-8.642v18.562zm-9.331 0h8.642V32.261h-8.642v18.562zm13.651-2.546a2.925 2.925 0 0 1-2.922-2.921v-7.628c0-1.611 1.311-2.922 2.922-2.922s2.923 1.311 2.923 2.922l-.001 7.628a2.925 2.925 0 0 1-2.922 2.921zm0-12.784a2.236 2.236 0 0 0-2.234 2.234v7.628a2.237 2.237 0 0 0 2.234 2.234 2.236 2.236 0 0 0 2.234-2.234l.001-7.628a2.237 2.237 0 0 0-2.236-2.234zm-3.578 6.901a.343.343 0 0 1-.343-.343v-1.015a.344.344 0 1 1 .688 0v1.015c0 .19-.154.343-.343.343zm-2.173 0a.343.343 0 0 1-.343-.343v-1.015a.344.344 0 1 1 .688 0v1.015c0 .19-.154.343-.343.343h-.001zm68.803-5.892a.344.344 0 1 0-.688 0v3.762h-.024a1.42 1.42 0 0 0-1.416-1.36h-1.575a1.42 1.42 0 0 0-1.415 1.36H-78.441c-.568 0-1.084.22-1.468.579l.001-.001v-1.618a.344.344 0 1 0-.688 0l-.001 6.856c0 .184.144.334.325.344v.157a.344.344 0 1 0 .688 0v-.157h17.911v.157a.344.344 0 1 0 .688 0v-.157a.345.345 0 0 0 .326-.344l-.001-9.578zm-3.701 3.089h1.575c.383 0 .699.295.731.668h-3.037a.734.734 0 0 1 .73-.668zm-14.078 1.36h17.092v1.125h-18.521a1.474 1.474 0 0 1 1.428-1.125zm-1.469 4.785v-2.973h18.562l.001 2.973h-18.563zm48.123-2.088a.344.344 0 0 0-.344-.344h-7.561v-3.176a.343.343 0 0 0-.343-.343h-3.439a.343.343 0 0 0-.343.343v3.176h-1.575c.194-.609-.392-3.184-.21-3.672a.343.343 0 0 0-.321-.464h-.463v-1.174h1.834a.343.343 0 0 0 .339-.396v.002l-.649-4.388a.344.344 0 0 0-.34-.293h-3.057a.343.343 0 0 0-.339.291v.002l-.648 4.388a.343.343 0 0 0 .339.394h1.833v1.174h-.463a.341.341 0 0 0-.32.466l-.001-.002c.182.489-.403 3.063-.209 3.672h-3.309a.343.343 0 0 0-.343.343V49.319c0 .183.144.333.324.343v.158a.344.344 0 1 0 .688 0v-.157h17.911v.157a.344.344 0 1 0 .688 0v-.158a.343.343 0 0 0 .326-.343l-.001-5.671zm-11.343-3.176h2.75v2.832h-2.75v-2.832zm-5.379-3.165.546-3.7h2.464l.547 3.7h-3.557zm1.405 2.549h.746c-.067.545.492 3.001.216 3.448h-1.178c-.275-.447.283-2.902.216-3.448zm5.004 9.12h-8.935v-4.984h8.935v4.984zm.688 0v-4.984h8.938l.001 4.984h-8.939z"/></symbol><symbol id="icon-gift" viewBox="0 0 32 32"><path fill="#3d4a39" style="fill:var(--color3, #3d4a39)" d="M6 5.001a5.001 5.001 0 0 1 10-.005v.005a5.001 5.001 0 0 1 10-.005v.016c0 .14 0 .54-.076.988H30a2 2 0 0 1 2 2v2a2 2 0 0 1-2 2H2a2 2 0 0 1-2-2V8a2 2 0 0 1 2-2h4.076a5.738 5.738 0 0 1-.077-.95v-.04.002-.011zM8.137 6H14V4.999a3.001 3.001 0 0 0-6-.004v.004c0 .171.004.549.089.86.015.055.031.102.051.147l-.003-.007zM18 6h5.865c.015-.038.031-.085.043-.133l.002-.008c.087-.311.091-.69.091-.859a3 3 0 1 0-6 0v.999zm12 8v15.001A3 3 0 0 1 27.001 32H18V14h12zM4.999 32A3 3 0 0 1 2 29.001V14.002h12V32H4.999z"/></symbol><symbol id="icon-household-appliances" viewBox="0 0 31 32"><path fill="#fff" style="fill:var(--color1, #fff)" d="M24.662 1.72H6.65a1.212 1.212 0 0 0-1.211 1.21v18.013a1.21 1.21 0 0 0 1.21 1.209h.586v.916c0 .181.147.328.329.328h2.86a.328.328 0 0 0 .328-.328v-.916h9.806v.916c0 .181.147.328.329.328h2.859a.328.328 0 0 0 .328-.328v-.916h.586c.668 0 1.21-.542 1.211-1.21V2.929a1.21 1.21 0 0 0-1.21-1.21zM6.65 2.377h18.012c.305 0 .554.248.554.554v3.282H6.096V2.931c0-.305.248-.554.554-.554zm3.446 20.364H7.893v-.587h2.203v.587zm13.323 0h-2.203v-.587h2.203v.587zm1.243-1.245H6.65a.554.554 0 0 1-.554-.553V6.87h19.12v14.073a.554.554 0 0 1-.554.553z"/><path fill="#fff" style="fill:var(--color1, #fff)" d="M20.887 5.616a1.323 1.323 0 0 0 1.321-1.321 1.323 1.323 0 0 0-1.321-1.321 1.323 1.323 0 0 0-1.321 1.321c.001.729.592 1.32 1.321 1.321zm0-1.985a.665.665 0 1 1-.664.664c0-.366.298-.664.664-.664zm-5.231 1.986a1.322 1.322 0 0 0 .001-2.642 1.322 1.322 0 0 0-1.321 1.321c.001.729.592 1.32 1.321 1.321zm0-1.986a.665.665 0 0 1 0 1.328.665.665 0 0 1 0-1.328zm-5.232 1.986a1.323 1.323 0 0 0 1.321-1.321 1.323 1.323 0 0 0-1.32-1.321 1.323 1.323 0 0 0-1.321 1.321c.001.729.592 1.32 1.321 1.321zm0-1.986a.665.665 0 0 1 0 1.328.665.665 0 0 1 0-1.328zm12.407 7.389H8.482a.33.33 0 0 0-.329.329v7.996c0 .182.147.329.329.329h14.349a.33.33 0 0 0 .329-.329v-7.996a.329.329 0 0 0-.329-.329zm-.328 7.996H8.81v-7.339h13.693v7.339z"/></symbol><symbol id="icon-instagram" viewBox="0 0 31 32"><path fill="#ae7b3c" style="fill:var(--color2, #ae7b3c)" d="M26.812 11.27a8.321 8.321 0 0 0-.557-2.894l.019.057a5.93 5.93 0 0 0-3.329-3.356l-.04-.014a8.275 8.275 0 0 0-2.789-.537h-.009c-1.231-.055-1.622-.07-4.749-.07-3.124 0-3.525 0-4.749.07a8.447 8.447 0 0 0-2.853.557l.058-.02a5.93 5.93 0 0 0-3.356 3.33l-.014.04a8.196 8.196 0 0 0-.536 2.788v.008c-.055 1.233-.072 1.623-.072 4.749s0 3.525.072 4.749c.019.957.2 1.902.536 2.799a5.931 5.931 0 0 0 3.332 3.355l.04.014a8.256 8.256 0 0 0 2.783.576h.014c1.233.055 1.623.072 4.749.072s3.526 0 4.749-.072a8.396 8.396 0 0 0 2.856-.556l-.058.019a5.938 5.938 0 0 0 3.356-3.33l.014-.04a8.417 8.417 0 0 0 .536-2.799c.055-1.231.072-1.622.072-4.749-.003-3.126-.003-3.523-.074-4.748zm-11.46 10.621h-.001a5.916 5.916 0 0 1-5.916-5.916v-.001a5.916 5.916 0 1 1 5.917 5.917zm6.152-10.674h-.011a1.377 1.377 0 0 1-.527-2.65l.009-.003a1.38 1.38 0 1 1 .529 2.654z"/><path fill="#ae7b3c" style="fill:var(--color2, #ae7b3c)" d="M15.352 19.817a3.844 3.844 0 1 0 0-7.688 3.844 3.844 0 1 0 0 7.688z"/></symbol><symbol id="icon-lighting" viewBox="0 0 25 32"><path fill="#fff" style="fill:var(--color1, #fff)" d="M19.221 16.82a.335.335 0 0 0 .335-.339c0-4.402-2.742-7.287-7.017-7.429V1.955a.346.346 0 0 0-.098-.24.331.331 0 0 0-.474 0 .34.34 0 0 0-.098.24v7.097c-4.277.142-7.02 3.026-7.02 7.429 0 .09.036.176.098.24s.148.099.237.099h4.369c.102.668.428 1.245.897 1.667l.003.002a2.728 2.728 0 0 0 1.745.697h.004a2.73 2.73 0 0 0 1.753-.699l-.003.002a2.798 2.798 0 0 0 .899-1.654l.002-.016h4.369zm-7.02-7.097c3.155 0 6.523 1.695 6.678 6.419H5.518c.159-4.724 3.526-6.419 6.682-6.419zm0 8.786a2.075 2.075 0 0 1-1.276-.503l.003.002a2.124 2.124 0 0 1-.694-1.174l-.002-.014h3.94a2.129 2.129 0 0 1-.694 1.187l-.003.002c-.342.294-.784.48-1.27.499h-.004zm7.384 2.436-2.081-1.605a.33.33 0 0 0-.47.063l-.001.001a.34.34 0 0 0 .064.475l.001.001 2.081 1.605a.334.334 0 0 0 .469-.064l.001-.001a.338.338 0 0 0 .022-.379l.001.002a.357.357 0 0 0-.086-.099l-.001-.001zM7.443 19.313 5.421 20.99a.339.339 0 0 0-.156.232v.002a.34.34 0 0 0 .074.273v-.001c.061.073.15.12.251.122h.006a.334.334 0 0 0 .25-.113l2.025-1.675a.337.337 0 0 0 .128-.229v-.002a.346.346 0 0 0-.074-.254v.001a.335.335 0 0 0-.23-.123h-.001l-.029-.001a.331.331 0 0 0-.22.083l-.002.006zm4.857 1.562a.339.339 0 0 0-.335.339v2.366c0 .09.035.176.098.24a.331.331 0 0 0 .474 0 .341.341 0 0 0 .098-.24v-2.366a.336.336 0 0 0-.335-.34z"/></symbol><symbol id="icon-logo" viewBox="0 0 74 32"><path fill="#3d4a39" style="fill:var(--color3, #3d4a39)" d="M64.412 1.182c2.48 0 4.606.886 6.381 2.651 1.776 1.769 2.661 3.891 2.661 6.373 0 2.486-.885 4.604-2.661 6.358-.241.238-.488.459-.741.664-4.177-2.159-8.59-3.19-8.682-7.019.769 1.537 1.212 2.384 2.866 3.211.132-.197.272-.435.413-.622.71-.942.859-.579 2.452-.929 1.339-.293 1.643-.886 1.738-2.38-1.217-1.04-.866-.322-1.616-2.015-.461-1.04-.849-1.125-2.072-1.386l.125-2.055c-2.746.648-4.662 2.956-5.624 5.511-1.202 3.19-.834 5.343-.232 8.164a9.669 9.669 0 0 1-1.395-1.145l.001.001c-1.764-1.761-2.649-3.879-2.649-6.358 0-2.475.886-4.597 2.65-6.373 1.775-1.765 3.901-2.651 6.385-2.651l.001-.001z"/><path fill="#3d4a39" style="fill:var(--color3, #3d4a39)" d="m66.402 5.569.157-.377a5.609 5.609 0 0 1 1.817 1.232v.001c.554.551.97 1.157 1.247 1.817.278.662.416 1.378.416 2.146 0 .775-.139 1.494-.417 2.155a5.482 5.482 0 0 1-1.247 1.805 5.635 5.635 0 0 1-1.819 1.223 5.556 5.556 0 0 1-2.143.409 5.65 5.65 0 0 1-2.165-.408 5.495 5.495 0 0 1-1.814-1.226l-.001.001a5.588 5.588 0 0 1-1.237-1.813 5.519 5.519 0 0 1-.414-2.148c0-.764.138-1.477.414-2.139s.688-1.269 1.236-1.823a5.485 5.485 0 0 1 1.809-1.234l.157.377a5.09 5.09 0 0 0-1.674 1.142 5.311 5.311 0 0 0-1.15 1.694 5.11 5.11 0 0 0-.382 1.982c0 .717.127 1.381.382 1.991s.638 1.171 1.148 1.68v.001c.507.507 1.067.885 1.68 1.137s1.282.376 2.009.376c.714 0 1.377-.125 1.988-.377a5.249 5.249 0 0 0 1.686-1.136h.001c.515-.504.9-1.061 1.156-1.671a5.125 5.125 0 0 0 .384-2c0-.715-.127-1.378-.383-1.989s-.642-1.174-1.158-1.686h-.001a5.2 5.2 0 0 0-1.683-1.144h.001zm-1.99-4.387c1.267 0 2.444.227 3.534.68 1.088.453 2.085 1.13 2.992 2.032.906.903 1.587 1.898 2.041 2.985s.681 2.264.681 3.532c0 1.269-.228 2.447-.681 3.532-.453 1.084-1.134 2.075-2.041 2.971-.903.892-1.899 1.561-2.987 2.008-1.09.447-2.269.67-3.539.67-1.275-.004-2.458-.229-3.547-.676s-2.084-1.113-2.983-2.001v-.001c-.901-.9-1.578-1.892-2.03-2.975-.453-1.085-.68-2.261-.68-3.526 0-1.264.228-2.439.68-3.527.452-1.086 1.129-2.082 2.031-2.99.907-.901 1.904-1.579 2.993-2.032s2.268-.68 3.537-.68l-.001-.001zm3.377 1.056c-1.038-.432-2.163-.648-3.376-.648-1.215 0-2.341.216-3.38.648s-1.992 1.081-2.861 1.944c-.862.868-1.511 1.821-1.942 2.858-.432 1.036-.647 2.16-.647 3.37 0 1.213.216 2.336.647 3.369.431 1.035 1.079 1.983 1.942 2.845.861.849 1.81 1.487 2.849 1.913 1.04.427 2.171.642 3.392.645v-.001c1.218 0 2.346-.213 3.383-.638 1.038-.426 1.989-1.065 2.854-1.92.868-.857 1.519-1.803 1.952-2.838.432-1.034.648-2.159.648-3.376 0-1.214-.216-2.34-.648-3.376s-1.084-1.987-1.953-2.853h.001c-.868-.863-1.822-1.512-2.861-1.944v.001z"/><path fill="#ddd5c1" style="fill:var(--color4, #ddd5c1)" d="m62.38 5.525.019.044a3.63 3.63 0 0 0-.177.076l.038-.016c-1.173 1.038-2.05 2.436-2.607 3.915-.14.35-.289.803-.415 1.267l-.022.095c.048.542.175 1.041.371 1.505l-.012-.033c.255.61.638 1.171 1.148 1.68v.001c.507.507 1.067.885 1.68 1.137s1.282.376 2.009.376c.572 0 1.11-.08 1.617-.242-2.584-1.238-4.597-2.548-4.659-5.122.769 1.537 1.212 2.384 2.866 3.211.132-.197.272-.435.413-.621.71-.943.859-.58 2.452-.929 1.339-.293 1.643-.886 1.738-2.38-1.217-1.04-.866-.322-1.616-2.015-.461-1.04-.848-1.125-2.072-1.386l.125-2.055c-1.102.26-2.07.788-2.896 1.491v-.001z"/><path fill="#ae7b3c" style="fill:var(--color2, #ae7b3c)" d="M66.548 15.576a5.576 5.576 0 0 1-2.136.406 5.669 5.669 0 0 1-2.165-.408 5.495 5.495 0 0 1-1.814-1.226l-.001.001a5.599 5.599 0 0 1-1.237-1.813 4.725 4.725 0 0 1-.194-.545l-.009-.037c-.322 1.986-.016 3.675.417 5.706.464.328.994.622 1.554.858l.055.021c1.04.427 2.171.642 3.392.645v-.001c1.218 0 2.346-.213 3.383-.638a8.575 8.575 0 0 0 2.226-1.349l-.013.011c-1.169-.602-2.357-1.117-3.46-1.63l.001-.001z"/><path fill="#3d4a39" style="fill:var(--color3, #3d4a39)" d="M45.494 1.215c2.472 0 4.602.875 6.392 2.629l-2.552 2.542c-1.082-1.063-2.356-1.596-3.818-1.596-1.497 0-2.771.534-3.822 1.596-1.06 1.055-1.591 2.329-1.591 3.819 0 1.487.531 2.76 1.591 3.816 1.043 1.055 2.318 1.585 3.822 1.585a5.23 5.23 0 0 0 3.012-.924 5.33 5.33 0 0 0 1.856-2.147l.014-.032h-5.081V9.104h9.145c.234 3.027-.629 5.514-2.597 7.458-1.775 1.754-3.901 2.629-6.381 2.629-2.503 0-4.629-.875-6.373-2.629-1.764-1.746-2.65-3.864-2.65-6.358 0-2.475.886-4.597 2.65-6.373 1.753-1.765 3.878-2.651 6.373-2.651l.011.034z"/><path fill="#3d4a39" style="fill:var(--color3, #3d4a39)" d="M45.641 1.012a9.137 9.137 0 0 1 3.383.672c1.09.448 2.092 1.12 3.006 2.015l.147.145-2.841 2.831-.145-.143a5.396 5.396 0 0 0-1.703-1.153 4.975 4.975 0 0 0-1.934-.384h-.04.002c-.721 0-1.387.128-1.998.383s-1.171.64-1.678 1.151v.002a5.18 5.18 0 0 0-1.15 1.681 5.138 5.138 0 0 0-.382 1.994c0 .717.127 1.381.382 1.991a5.196 5.196 0 0 0 1.148 1.68l.001.001c.502.508 1.06.89 1.672 1.144.61.254 1.279.38 2.004.38.533 0 1.04-.074 1.521-.222a5.09 5.09 0 0 0 1.392-.678l-.017.011c.399-.27.744-.576 1.044-.923l.006-.007c.221-.257.421-.543.59-.849l.013-.026H45.11V8.9h9.54l.014.189c.119 1.54-.042 2.946-.484 4.216-.444 1.274-1.167 2.408-2.173 3.402-.907.896-1.904 1.567-2.993 2.016s-2.267.673-3.532.673c-1.278 0-2.462-.224-3.55-.673s-2.078-1.121-2.969-2.016c-.901-.892-1.578-1.88-2.031-2.965s-.679-2.264-.679-3.538c0-1.264.227-2.439.679-3.526.453-1.086 1.129-2.082 2.031-2.99.896-.903 1.888-1.581 2.977-2.034s2.269-.679 3.542-.679h.147l.012.035v.001zm3.228 1.048c-1.04-.427-2.164-.641-3.374-.641h-.147l-.011-.033c-1.164.017-2.244.232-3.239.646-1.038.432-1.986 1.081-2.844 1.944-.863.868-1.51 1.821-1.942 2.859-.431 1.036-.647 2.16-.647 3.37 0 1.22.216 2.347.647 3.381s1.079 1.979 1.942 2.833c.853.857 1.799 1.5 2.834 1.927 1.037.427 2.169.641 3.395.641 1.214 0 2.34-.213 3.377-.641s1.991-1.07 2.86-1.928c.962-.951 1.653-2.033 2.076-3.246.405-1.163.563-2.452.475-3.864h-8.749v2.99h5.199l-.136.291a5.483 5.483 0 0 1-.817 1.266l.006-.007c-.329.38-.7.71-1.109.988l-.02.013v.001c-.427.297-.92.542-1.448.709l-.039.011c-.484.152-1.04.24-1.617.24h-.025.001a5.595 5.595 0 0 1-2.161-.412 5.477 5.477 0 0 1-1.805-1.233l-.001.001c-.549-.546-.961-1.151-1.237-1.813s-.414-1.378-.414-2.148c0-.772.138-1.488.414-2.151s.688-1.267 1.237-1.813v.001a5.553 5.553 0 0 1 1.81-1.241 5.514 5.514 0 0 1 2.157-.415c.758 0 1.469.139 2.13.415.65.28 1.208.651 1.687 1.103l-.003-.003 2.263-2.255c-.836-.787-1.744-1.383-2.726-1.787zm-17.543 9.07V1.282h3.588v18.143L24.179 9.236v9.848h-3.577V.952L31.327 11.13z"/><path fill="#3d4a39" style="fill:var(--color3, #3d4a39)" d="M30.915 10.177V.873h4.408v19.504L24.588 10.188v9.304h-4.397V-.001l10.724 10.177zm.821-8.486v10.391L21.012 1.904v16.771h2.756V8.284l10.735 10.189V1.69h-2.768zm-16.921-.367h3.577v17.738h-3.577V1.324z"/><path fill="#3d4a39" style="fill:var(--color3, #3d4a39)" d="M14.815 1.119h3.782v18.147H14.61V1.119h.205zm3.372.409H15.02v17.328h3.167V1.528zM6.358 9.763c.648 0 1.202-.245 1.666-.737a2.5 2.5 0 0 0 .686-1.761c0-.646-.237-1.213-.709-1.705-.486-.469-1.221-.702-2.209-.702H3.783v4.894h1.38v.011h1.195zM.205 1.323h5.808c1.885 0 3.438.601 4.659 1.806.6.594 1.022 1.153 1.27 1.683.302.646.453 1.427.453 2.343v.462c0 1.194-.374 2.321-1.123 3.38a4.67 4.67 0 0 1-2.133 1.637l4.142 6.426H8.909l-5.115-7.845v7.845H.206V1.322H.205z"/><path fill="#3d4a39" style="fill:var(--color3, #3d4a39)" d="M6.358 9.558c.296 0 .569-.054.819-.165a2.16 2.16 0 0 0 .696-.504c.211-.228.369-.476.473-.744.105-.269.158-.561.158-.879 0-.296-.054-.574-.162-.832a2.412 2.412 0 0 0-.488-.731 2.081 2.081 0 0 0-.833-.476c-.346-.111-.756-.165-1.231-.165H3.986v4.485h1.38v.011h.99zm.984.208a2.372 2.372 0 0 1-.963.201H4.957v-.012H3.578V4.654h2.214c.513 0 .964.062 1.354.186.399.127.731.318.997.575l.005.005c.253.264.444.549.572.857.129.309.193.638.193.988 0 .366-.062.708-.187 1.026a2.764 2.764 0 0 1-.555.874l.001-.001-.002.002a2.556 2.556 0 0 1-.814.593l-.016.007h.001zM.205 1.12h5.808c.967-.001 1.851.155 2.652.465a6.272 6.272 0 0 1 2.151 1.401c.306.303.568.598.786.888.22.292.395.576.525.853v.001c.152.322.275.696.35 1.087l.005.03c.079.405.117.842.117 1.312v.462c0 .619-.097 1.22-.29 1.805a6.456 6.456 0 0 1-.871 1.693l-.001.002c-.28.387-.602.72-.966 1.002l-.011.008c-.295.227-.63.429-.987.589l-.032.013 4.214 6.536H8.797l-4.799-7.361v7.361H-.001V1.121h.205zm5.809.408H.411v17.328h3.178v-8.328l5.43 8.33h3.887l-4.074-6.32.232-.091a4.685 4.685 0 0 0 1.158-.649l-.011.008c.343-.265.637-.57.885-.911l.009-.013c.331-.456.607-.981.802-1.544l.013-.042a5.192 5.192 0 0 0 .271-1.67V7.157c0-.447-.036-.858-.109-1.235a4.364 4.364 0 0 0-.336-1.05l.011.027h.001a4.418 4.418 0 0 0-.489-.79l.008.01a7.931 7.931 0 0 0-.747-.843A5.842 5.842 0 0 0 8.559 1.98l-.04-.014c-.751-.29-1.586-.437-2.504-.437h-.001z"/><path fill="#ae7b3c" style="fill:var(--color2, #ae7b3c)" d="M3.828 30.919c.377 0 .713-.063 1.009-.19s.548-.303.753-.531c.205-.227.362-.499.469-.815.102-.3.161-.646.161-1.005v-.04.002-5.506h1.224V28.381c0 .507-.091.993-.259 1.441l.009-.029c-.167.45-.411.836-.719 1.161l.001-.002a3.3 3.3 0 0 1-1.118.761l-.022.008c-.448.185-.952.278-1.509.278s-1.062-.093-1.51-.278a3.318 3.318 0 0 1-1.141-.768l-.001-.001a3.364 3.364 0 0 1-.711-1.136l-.008-.023a4.037 4.037 0 0 1-.252-1.419v-.037.002-5.506h1.224v5.5c0 .379.055.726.163 1.043s.264.588.469.815c.205.228.457.405.755.533.287.123.622.195.973.195h.04-.002zm10.299-4.116h.464c.161 0 .29-.021.386-.06s.186-.107.267-.205l3.027-3.414a.718.718 0 0 1 .262-.225l.004-.002a.834.834 0 0 1 .343-.063h1.04l-3.464 3.9c-.085.101-.165.183-.243.248s-.163.121-.251.162c.115.038.217.093.311.166.093.074.184.171.272.289l3.617 4.293h-1.066c-.08 0-.148-.007-.205-.017a.503.503 0 0 1-.153-.052l.003.001a.509.509 0 0 1-.11-.082.851.851 0 0 1-.092-.107l-.002-.002-3.134-3.597c-.085-.106-.176-.182-.273-.226s-.246-.066-.444-.066h-.559v4.148h-1.224v-9.06h1.224v3.97h-.001zm12.95.418c.356 0 .67-.045.943-.131s.501-.208.685-.366c.184-.158.322-.345.415-.565s.14-.462.14-.727c0-.54-.178-.946-.533-1.22s-.888-.411-1.599-.411h-1.345v3.42l1.294-.001zm4.2 4.672h-1.092c-.225 0-.389-.086-.495-.26l-2.361-3.236a.709.709 0 0 0-.226-.217l-.003-.002c-.083-.045-.211-.065-.385-.065h-.933v3.78h-1.224v-9.059h2.57c.575 0 1.073.057 1.491.173s.766.284 1.038.504c.272.219.473.483.604.792a2.6 2.6 0 0 1 .197 1.003v.04-.002.02c0 .314-.056.616-.158.895l.006-.018c-.101.278-.248.527-.44.749s-.427.411-.704.566a3.43 3.43 0 0 1-.92.35l-.023.004c.157.089.292.217.406.386l2.653 3.597zm8.882-3.365-1.427-3.685a7.249 7.249 0 0 1-.254-.79l-.013-.057c-.085.34-.178.624-.289.9l.017-.047-1.428 3.679h3.394zm2.564 3.364h-.971a.416.416 0 0 1-.249-.083l.001.001a.504.504 0 0 1-.151-.205l-.001-.003-.85-2.187h-4.08l-.85 2.187a.457.457 0 0 1-.145.202l-.001.001a.408.408 0 0 1-.254.089h-.965l3.636-9.059h1.244l3.636 9.059zm5.253.001h-1.23v-9.06h1.23v9.06zm12.938-9.06v9.059h-.634a.526.526 0 0 1-.228-.052l.003.001a.619.619 0 0 1-.193-.169l-.001-.002-5.26-6.827c.015.176.025.383.026.592v6.457h-1.079v-9.059h.635a.93.93 0 0 1 .139.008c.075.012.14.046.19.095a.85.85 0 0 1 .095.105l5.26 6.821-.021-.32a5.005 5.005 0 0 1-.011-.291v-6.418l1.078-.001zm9.975 5.695-1.428-3.685a8.075 8.075 0 0 1-.266-.847c-.085.34-.178.624-.289.9l.016-.046-1.427 3.679h3.394zm2.564 3.364h-.971a.411.411 0 0 1-.248-.083l.001.001a.504.504 0 0 1-.151-.205l-.001-.003-.851-2.187h-4.08l-.851 2.187a.457.457 0 0 1-.145.202l-.001.001a.409.409 0 0 1-.255.089h-.964l3.635-9.059h1.244l3.637 9.059z"/></symbol><symbol id="icon-phone" viewBox="0 0 31 32"><path fill="#3d4a39" style="fill:var(--color3, #3d4a39)" d="M20.406 1.971H10.202a3.83 3.83 0 0 0-3.826 3.826v20.405a3.83 3.83 0 0 0 3.826 3.826h10.204a3.83 3.83 0 0 0 3.826-3.826V5.797a3.83 3.83 0 0 0-3.826-3.826zm-2.551 25.507h-5.101v-1.276h5.101v1.276zm4.146-3.826H8.61V5.797h13.391v17.855z"/></symbol><symbol id="icon-wall-panels" viewBox="0 0 32 32"><path fill="#fff" style="fill:var(--color1, #fff)" d="M26.551 22.439 23.735 8.828a.47.47 0 0 0-.46-.373H8.726a.47.47 0 0 0-.46.373L5.45 22.439c-.028.138.007.281.096.392s.223.174.364.174h20.181a.47.47 0 0 0 .46-.568l.001.003zm-2.446-7.179h-7.636V9.393h6.423l1.213 5.867zM9.108 9.394h6.423v5.867H7.895l1.213-5.867zm-1.399 6.761a.45.45 0 0 0 .195.044h7.627v5.867H6.487l1.222-5.911zm8.76 5.911v-5.867h7.627c.07 0 .136-.016.195-.044l1.222 5.911h-9.044zm1.174-17.6c.648 0 1.173.526 1.173 1.173 0 .258.211.469.469.469s.469-.211.469-.469c0-.648.526-1.173 1.173-1.173.258 0 .469-.211.469-.469s-.211-.469-.469-.469a1.173 1.173 0 0 1-1.173-1.173c0-.258-.211-.469-.469-.469s-.469.211-.469.469c0 .648-.526 1.173-1.173 1.173-.258 0-.469.211-.469.469s.211.469.469.469zm1.642-.789c.094.117.202.223.319.319a2.186 2.186 0 0 0-.319.319 2.189 2.189 0 0 0-.315-.316l-.004-.003c.117-.094.225-.202.319-.319zm-8.213 1.727c.648 0 1.173.526 1.173 1.173 0 .258.211.469.469.469s.469-.211.469-.469c0-.648.525-1.173 1.173-1.173.258 0 .469-.211.469-.469s-.211-.469-.469-.469a1.173 1.173 0 0 1-1.173-1.173c0-.258-.211-.469-.469-.469s-.469.211-.469.469c0 .648-.525 1.173-1.173 1.173-.258 0-.469.211-.469.469s.211.469.469.469zm1.643-.788c.094.117.202.223.319.319a2.186 2.186 0 0 0-.319.319 2.189 2.189 0 0 0-.315-.316l-.004-.003c.117-.094.225-.202.319-.319z"/></symbol><symbol id="icon-checked" viewBox="0 0 32 32"><path d="M16 0C7.163 0 0 7.163 0 16s7.163 16 16 16 16-7.163 16-16S24.837 0 16 0zm0 28C9.373 28 4 22.627 4 16S9.373 4 16 4s12 5.373 12 12-5.373 12-12 12zm-6-12a6 6 0 1 1 12 0 6 6 0 0 1-12 0z"/></symbol></defs></svg>